<?xml version="1.0" encoding="UTF-8" standalone="no"?>
<!-- Uploaded to: SVG Repo, www.svgrepo.com, Generator: SVG Repo Mixer Tools -->

<svg
   fill="#000000"
   version="1.1"
   id="Capa_1"
   width="800px"
   height="800px"
   viewBox="0 0 793.568 793.568"
   xml:space="preserve"
   sodipodi:docname="connections.svg"
   inkscape:version="1.3.2 (091e20e, 2023-11-25, custom)"
   xmlns:inkscape="http://www.inkscape.org/namespaces/inkscape"
   xmlns:sodipodi="http://sodipodi.sourceforge.net/DTD/sodipodi-0.dtd"
   xmlns="http://www.w3.org/2000/svg"
   xmlns:svg="http://www.w3.org/2000/svg"><defs
   id="defs6" /><sodipodi:namedview
   id="namedview6"
   pagecolor="#505050"
   bordercolor="#ffffff"
   borderopacity="1"
   inkscape:showpageshadow="0"
   inkscape:pageopacity="0"
   inkscape:pagecheckerboard="1"
   inkscape:deskcolor="#505050"
   inkscape:zoom="0.36283417"
   inkscape:cx="611.84976"
   inkscape:cy="649.05684"
   inkscape:window-width="1920"
   inkscape:window-height="1017"
   inkscape:window-x="1912"
   inkscape:window-y="-8"
   inkscape:window-maximized="1"
   inkscape:current-layer="Capa_1" />
<g
   id="con3"
   style="image-rendering:auto"
   inkscape:label="#con3"><title
   id="title1">connections</title>
	
	<path
   d="m 493.4379,641.887 c -1.943,-45.162 -39.162,-81.183 -84.807,-81.183 -39.604,0 -72.867,27.112 -82.252,63.798 -2.074,6.671 -3.236,13.489 -3.271,20.266 -0.025,5.831 0.775,11.66 2.254,17.388 7.703,38.961 42.055,68.344 83.271,68.344 46.891,0 84.896,-38.01 84.896,-84.896 0,-0.605 -0.031,-1.207 -0.047,-1.812 0.012,-0.563 0.049,-1.12 0.047,-1.688 -0.031,-0.073 -0.062,-0.146 -0.091,-0.217 z"
   id="path4"
   inkscape:label="cirlce3" />
	<circle
   cx="407.73093"
   cy="393.85501"
   r="85.800003"
   id="circle4"
   inkscape:label="circle2" />
	<path
   d="m 322.8599,143.543 c 0.006,0.162 0.021,0.326 0.031,0.488 0.719,38.284 26.77,70.354 62.104,80.157 7.061,2.307 14.287,3.406 21.432,3.071 0.438,0.007 0.867,0.033 1.307,0.033 44.816,0 81.494,-34.739 84.643,-78.754 0.021,-0.204 0.029,-0.406 0.047,-0.608 0.043,-0.692 0.084,-1.387 0.107,-2.085 0.043,-0.942 0.064,-1.885 0.072,-2.828 0.002,-0.205 0.018,-0.404 0.018,-0.608 0,-0.207 -0.016,-0.407 -0.018,-0.613 -0.006,-0.354 0.01,-0.708 0,-1.063 -0.012,-0.307 -0.039,-0.611 -0.053,-0.917 -1.34,-44.564 -37.01,-80.481 -81.477,-82.206 -0.107,-0.05 -0.225,-0.095 -0.328,-0.146 -0.631,0.012 -1.262,0.061 -1.891,0.088 -0.375,-0.003 -0.748,-0.028 -1.125,-0.028 -45.703,0 -82.947,36.122 -84.795,81.369 -0.045,0.875 -0.062,1.747 -0.064,2.619 -0.004,0.3 -0.021,0.594 -0.021,0.895 0,0.196 0.02,0.393 0.021,0.591 -0.004,0.183 -0.014,0.362 -0.01,0.545 z"
   id="path5"
   inkscape:label="circle1" />
	<path
   d="m 298.8009,422.854 v -58 h -60.016 v -131 c 0,-32.532 26.467,-59 59,-59 v -58 c -64.514,0 -117,52.486 -117,117 v 131 h -52.018 v 58 h 52.018 v 131 c 0,64.516 52.486,117 117,117 v -58 c -32.533,0 -59,-26.468 -59,-59 v -131 z"
   id="path6"
   style="stroke-width:0.99989568;stroke-dasharray:none"
   inkscape:label="bar1" />
</g>
</svg>
