<?xml version="1.0" encoding="UTF-8" standalone="no"?>
<!-- Uploaded to: SVG Repo, www.svgrepo.com, Generator: SVG Repo Mixer Tools -->

<svg
   width="64"
   height="64"
   viewBox="0 0 1.6 1.6"
   fill="none"
   version="1.1"
   id="svg1"
   sodipodi:docname="menu.svg"
   inkscape:version="1.3.2 (091e20e, 2023-11-25, custom)"
   xmlns:inkscape="http://www.inkscape.org/namespaces/inkscape"
   xmlns:sodipodi="http://sodipodi.sourceforge.net/DTD/sodipodi-0.dtd"
   xmlns="http://www.w3.org/2000/svg"
   xmlns:svg="http://www.w3.org/2000/svg">
  <defs
     id="defs1" />
  <sodipodi:namedview
     id="namedview1"
     pagecolor="#505050"
     bordercolor="#ffffff"
     borderopacity="1"
     inkscape:showpageshadow="0"
     inkscape:pageopacity="0"
     inkscape:pagecheckerboard="1"
     inkscape:deskcolor="#505050"
     inkscape:zoom="8"
     inkscape:cx="11.625"
     inkscape:cy="43.6875"
     inkscape:window-width="1920"
     inkscape:window-height="1017"
     inkscape:window-x="1912"
     inkscape:window-y="-8"
     inkscape:window-maximized="1"
     inkscape:current-layer="svg1" />
  <path
     fill="#000000"
     fill-rule="evenodd"
     d="m 1.3853122,0.38265429 a 0.06515432,0.06515432 0 0 1 -0.065155,0.0651546 H 0.27768848 a 0.06515445,0.06515445 0 0 1 0,-0.13030889 H 1.3201577 a 0.06515432,0.06515432 0 0 1 0.065155,0.0651543 z m 0,0.39092601 a 0.06515432,0.06515432 0 0 1 -0.065155,0.065155 H 0.27768848 a 0.06515432,0.06515432 0 1 1 0,-0.1303086 H 1.3201577 a 0.06515432,0.06515432 0 0 1 0.065155,0.0651536 z m -0.065155,0.4560803 a 0.06515432,0.06515432 0 1 0 0,-0.1303086 H 0.27768848 a 0.06515432,0.06515432 0 1 0 0,0.1303086 z"
     id="path1"
     style="stroke-width:0.0651543" />
</svg>
